<mxfile host="app.diagrams.net" modified="2023-04-05T12:58:51.912Z" agent="Mozilla/5.0 (Windows NT 10.0; Win64; x64) AppleWebKit/537.36 (KHTML, like Gecko) Chrome/111.0.0.0 Safari/537.36" etag="u4XQVUowl2VLNUHhQv8T" version="21.1.4" type="github">
  <diagram name="PÃ¡gina-1" id="6HDvD4HPwfDrFZzzcmVo">
    <mxGraphModel dx="1222" dy="711" grid="1" gridSize="10" guides="1" tooltips="1" connect="1" arrows="1" fold="1" page="1" pageScale="1" pageWidth="827" pageHeight="1169" math="0" shadow="0">
      <root>
        <mxCell id="0" />
        <mxCell id="1" parent="0" />
        <mxCell id="Z5FUZ0g-Cbh_tWbyXWGY-1" value="is format = NULL?" style="rhombus;whiteSpace=wrap;html=1;" vertex="1" parent="1">
          <mxGeometry x="342.5" y="430" width="117.5" height="120" as="geometry" />
        </mxCell>
        <mxCell id="Z5FUZ0g-Cbh_tWbyXWGY-2" value="START" style="ellipse;whiteSpace=wrap;html=1;" vertex="1" parent="1">
          <mxGeometry x="335" y="15" width="120" height="80" as="geometry" />
        </mxCell>
        <mxCell id="Z5FUZ0g-Cbh_tWbyXWGY-4" value="" style="endArrow=none;dashed=1;html=1;dashPattern=1 3;strokeWidth=2;rounded=0;" edge="1" parent="1" target="Z5FUZ0g-Cbh_tWbyXWGY-5">
          <mxGeometry width="50" height="50" relative="1" as="geometry">
            <mxPoint x="450" y="65" as="sourcePoint" />
            <mxPoint x="550" y="30" as="targetPoint" />
            <Array as="points">
              <mxPoint x="480" y="40" />
            </Array>
          </mxGeometry>
        </mxCell>
        <mxCell id="Z5FUZ0g-Cbh_tWbyXWGY-5" value="int _printf(const char *format, ...)" style="text;html=1;strokeColor=none;fillColor=none;align=center;verticalAlign=middle;whiteSpace=wrap;rounded=0;" vertex="1" parent="1">
          <mxGeometry x="520" y="15" width="180" height="30" as="geometry" />
        </mxCell>
        <mxCell id="Z5FUZ0g-Cbh_tWbyXWGY-6" value="input: char *format, ..." style="shape=parallelogram;perimeter=parallelogramPerimeter;whiteSpace=wrap;html=1;fixedSize=1;" vertex="1" parent="1">
          <mxGeometry x="320" y="120" width="150" height="60" as="geometry" />
        </mxCell>
        <mxCell id="Z5FUZ0g-Cbh_tWbyXWGY-7" value="va_start(args, format);" style="rounded=0;whiteSpace=wrap;html=1;" vertex="1" parent="1">
          <mxGeometry x="327.5" y="350" width="135" height="60" as="geometry" />
        </mxCell>
        <mxCell id="Z5FUZ0g-Cbh_tWbyXWGY-8" value="Initialize int contador equal to 0." style="rounded=0;whiteSpace=wrap;html=1;" vertex="1" parent="1">
          <mxGeometry x="335" y="200" width="120" height="60" as="geometry" />
        </mxCell>
        <mxCell id="Z5FUZ0g-Cbh_tWbyXWGY-10" value="va_list args;" style="rounded=0;whiteSpace=wrap;html=1;" vertex="1" parent="1">
          <mxGeometry x="335" y="280" width="120" height="60" as="geometry" />
        </mxCell>
        <mxCell id="Z5FUZ0g-Cbh_tWbyXWGY-11" value="" style="endArrow=classic;html=1;rounded=0;" edge="1" parent="1">
          <mxGeometry width="50" height="50" relative="1" as="geometry">
            <mxPoint x="590" y="489.47" as="sourcePoint" />
            <mxPoint x="520" y="489.47" as="targetPoint" />
            <Array as="points">
              <mxPoint x="460" y="489.47" />
            </Array>
          </mxGeometry>
        </mxCell>
        <mxCell id="Z5FUZ0g-Cbh_tWbyXWGY-14" value="Return -1" style="rounded=0;whiteSpace=wrap;html=1;" vertex="1" parent="1">
          <mxGeometry x="520" y="460" width="120" height="60" as="geometry" />
        </mxCell>
        <mxCell id="Z5FUZ0g-Cbh_tWbyXWGY-15" value="" style="endArrow=classic;html=1;rounded=0;exitX=1;exitY=0.5;exitDx=0;exitDy=0;entryX=0;entryY=0.5;entryDx=0;entryDy=0;" edge="1" parent="1" source="Z5FUZ0g-Cbh_tWbyXWGY-14" target="Z5FUZ0g-Cbh_tWbyXWGY-17">
          <mxGeometry width="50" height="50" relative="1" as="geometry">
            <mxPoint x="380" y="760" as="sourcePoint" />
            <mxPoint x="669.9999999999998" y="480" as="targetPoint" />
          </mxGeometry>
        </mxCell>
        <mxCell id="Z5FUZ0g-Cbh_tWbyXWGY-17" value="End." style="ellipse;whiteSpace=wrap;html=1;" vertex="1" parent="1">
          <mxGeometry x="690" y="450" width="120" height="80" as="geometry" />
        </mxCell>
        <mxCell id="Z5FUZ0g-Cbh_tWbyXWGY-19" value="" style="endArrow=classic;html=1;rounded=0;entryX=0.5;entryY=0;entryDx=0;entryDy=0;" edge="1" parent="1" target="Z5FUZ0g-Cbh_tWbyXWGY-20">
          <mxGeometry width="50" height="50" relative="1" as="geometry">
            <mxPoint x="400" y="410" as="sourcePoint" />
            <mxPoint x="230" y="520" as="targetPoint" />
          </mxGeometry>
        </mxCell>
        <mxCell id="Z5FUZ0g-Cbh_tWbyXWGY-20" value="Contador increased by the int returned from menu." style="rounded=0;whiteSpace=wrap;html=1;" vertex="1" parent="1">
          <mxGeometry x="170" y="520" width="120" height="60" as="geometry" />
        </mxCell>
        <mxCell id="Z5FUZ0g-Cbh_tWbyXWGY-21" value="return contador" style="rounded=0;whiteSpace=wrap;html=1;" vertex="1" parent="1">
          <mxGeometry x="170" y="620" width="120" height="60" as="geometry" />
        </mxCell>
        <mxCell id="Z5FUZ0g-Cbh_tWbyXWGY-22" value="End." style="ellipse;whiteSpace=wrap;html=1;" vertex="1" parent="1">
          <mxGeometry x="170" y="720" width="120" height="80" as="geometry" />
        </mxCell>
        <mxCell id="Z5FUZ0g-Cbh_tWbyXWGY-23" value="" style="endArrow=classic;html=1;rounded=0;entryX=0.5;entryY=0;entryDx=0;entryDy=0;exitX=0.5;exitY=1;exitDx=0;exitDy=0;" edge="1" parent="1" source="Z5FUZ0g-Cbh_tWbyXWGY-20" target="Z5FUZ0g-Cbh_tWbyXWGY-21">
          <mxGeometry width="50" height="50" relative="1" as="geometry">
            <mxPoint x="230" y="600" as="sourcePoint" />
            <mxPoint x="550" y="680" as="targetPoint" />
          </mxGeometry>
        </mxCell>
        <mxCell id="Z5FUZ0g-Cbh_tWbyXWGY-24" value="" style="endArrow=classic;html=1;rounded=0;exitX=0.5;exitY=1;exitDx=0;exitDy=0;entryX=0.5;entryY=0;entryDx=0;entryDy=0;" edge="1" parent="1" source="Z5FUZ0g-Cbh_tWbyXWGY-21" target="Z5FUZ0g-Cbh_tWbyXWGY-22">
          <mxGeometry width="50" height="50" relative="1" as="geometry">
            <mxPoint x="480" y="710" as="sourcePoint" />
            <mxPoint x="530" y="660" as="targetPoint" />
          </mxGeometry>
        </mxCell>
        <mxCell id="Z5FUZ0g-Cbh_tWbyXWGY-25" value="" style="endArrow=classic;html=1;rounded=0;exitX=0.5;exitY=1;exitDx=0;exitDy=0;" edge="1" parent="1" source="Z5FUZ0g-Cbh_tWbyXWGY-2" target="Z5FUZ0g-Cbh_tWbyXWGY-6">
          <mxGeometry width="50" height="50" relative="1" as="geometry">
            <mxPoint x="480" y="250" as="sourcePoint" />
            <mxPoint x="530" y="200" as="targetPoint" />
          </mxGeometry>
        </mxCell>
        <mxCell id="Z5FUZ0g-Cbh_tWbyXWGY-26" value="" style="endArrow=classic;html=1;rounded=0;exitX=0.5;exitY=1;exitDx=0;exitDy=0;entryX=0.5;entryY=0;entryDx=0;entryDy=0;" edge="1" parent="1" source="Z5FUZ0g-Cbh_tWbyXWGY-6" target="Z5FUZ0g-Cbh_tWbyXWGY-8">
          <mxGeometry width="50" height="50" relative="1" as="geometry">
            <mxPoint x="480" y="250" as="sourcePoint" />
            <mxPoint x="530" y="200" as="targetPoint" />
          </mxGeometry>
        </mxCell>
        <mxCell id="Z5FUZ0g-Cbh_tWbyXWGY-27" value="" style="endArrow=classic;html=1;rounded=0;exitX=0.5;exitY=1;exitDx=0;exitDy=0;entryX=0.5;entryY=0;entryDx=0;entryDy=0;" edge="1" parent="1" source="Z5FUZ0g-Cbh_tWbyXWGY-8" target="Z5FUZ0g-Cbh_tWbyXWGY-10">
          <mxGeometry width="50" height="50" relative="1" as="geometry">
            <mxPoint x="480" y="330" as="sourcePoint" />
            <mxPoint x="530" y="280" as="targetPoint" />
          </mxGeometry>
        </mxCell>
        <mxCell id="Z5FUZ0g-Cbh_tWbyXWGY-28" value="" style="endArrow=classic;html=1;rounded=0;exitX=0.5;exitY=1;exitDx=0;exitDy=0;entryX=0.5;entryY=0;entryDx=0;entryDy=0;" edge="1" parent="1" source="Z5FUZ0g-Cbh_tWbyXWGY-10" target="Z5FUZ0g-Cbh_tWbyXWGY-7">
          <mxGeometry width="50" height="50" relative="1" as="geometry">
            <mxPoint x="480" y="330" as="sourcePoint" />
            <mxPoint x="530" y="280" as="targetPoint" />
          </mxGeometry>
        </mxCell>
        <mxCell id="Z5FUZ0g-Cbh_tWbyXWGY-29" value="" style="endArrow=classic;html=1;rounded=0;" edge="1" parent="1" target="Z5FUZ0g-Cbh_tWbyXWGY-1">
          <mxGeometry width="50" height="50" relative="1" as="geometry">
            <mxPoint x="400" y="410" as="sourcePoint" />
            <mxPoint x="530" y="520" as="targetPoint" />
          </mxGeometry>
        </mxCell>
      </root>
    </mxGraphModel>
  </diagram>
</mxfile>
